<?xml version="1.0" encoding="UTF-8"?>
<svg id="Layer_1" data-name="Layer 1" xmlns="http://www.w3.org/2000/svg" viewBox="0 0 361 361">
  <defs>
    <style>
      .cls-1 {
        fill: #231f20;
      }
    </style>
  </defs>
  <path class="cls-1" d="M67.48,72.2c-.33,3.74-.55,7.5-.68,11.26-1.82,55.66,18.64,108.48,57.6,148.74,39.04,40.34,91.19,62.55,146.86,62.55,3.35,0,6.75-.08,10.1-.25,2.3-.11,4.6-.26,6.89-.45-28.75,27.34-67.06,42.95-107.74,42.95-11.99,0-24.17-1.36-36.22-4.04-57.84-12.86-103.48-58.56-116.28-116.43-7.38-33.38-4.46-67.04,8.47-97.35,7.48-17.55,17.99-33.41,31.02-46.98m20.71-45.1c-1.82,0-3.69,.51-5.47,1.65C22.44,67.68-13.17,141.55,4.56,221.72c14.84,67.08,67.44,119.76,134.5,134.67,14.05,3.13,27.92,4.61,41.43,4.61,63.34,0,119.05-32.62,151.27-81.99,4.53-6.95-.73-15.53-8.26-15.53-.93,0-1.89,.13-2.87,.41-12.95,3.68-26.49,5.95-40.45,6.64-2.99,.15-5.96,.22-8.92,.22-100.99,0-183.8-84.44-180.47-186.5,.5-15.35,2.92-30.22,7.03-44.37,2-6.89-3.45-12.78-9.62-12.78h0Z"/>
</svg>